<?xml version="1.0" encoding="utf-8"?>
<!-- Generator: Adobe Illustrator 23.0.1, SVG Export Plug-In . SVG Version: 6.00 Build 0)  -->
<svg version="1.1" xmlns="http://www.w3.org/2000/svg" xmlns:xlink="http://www.w3.org/1999/xlink" x="0px" y="0px"
	 viewBox="0 0 1000 1000" style="enable-background:new 0 0 1000 1000;" xml:space="preserve">
<style type="text/css">
	.st0{fill:#5937AA;}
	.st1{fill:#FFFFFF;}
</style>
<g id="Layer_1">
	<g>
		<path class="st0" d="M500.41,985c-65.38,0-128.8-12.8-188.5-38.05c-57.67-24.39-109.46-59.31-153.93-103.79
			c-44.48-44.48-79.4-96.27-103.79-153.94c-25.25-59.7-38.05-123.12-38.05-188.5c0-65.38,12.8-128.8,38.05-188.5
			c24.39-57.67,59.31-109.46,103.79-153.93s96.27-79.4,153.93-103.79c59.7-25.25,123.12-38.05,188.5-38.05s128.8,12.8,188.5,38.05
			c57.67,24.39,109.46,59.31,153.93,103.79s79.4,96.27,103.79,153.93c25.25,59.7,38.05,123.12,38.05,188.5
			c0,65.38-12.8,128.8-38.05,188.5c-24.39,57.67-59.31,109.46-103.79,153.94c-44.48,44.48-96.27,79.4-153.93,103.79
			C629.21,972.2,565.79,985,500.41,985z"/>
		<path d="M500.41,26.45c64.04,0,126.14,12.54,184.6,37.26c56.47,23.89,107.2,58.09,150.76,101.65
			c43.56,43.56,77.76,94.29,101.65,150.76c24.73,58.46,37.26,120.57,37.26,184.6s-12.54,126.14-37.26,184.6
			c-23.89,56.47-58.09,107.2-101.65,150.76c-43.56,43.56-94.29,77.76-150.76,101.65C626.55,962.46,564.44,975,500.41,975
			s-126.14-12.54-184.6-37.26c-56.47-23.89-107.2-58.09-150.76-101.65C121.48,792.53,87.29,741.8,63.4,685.33
			c-24.73-58.46-37.26-120.57-37.26-184.6s12.54-126.14,37.26-184.6c23.89-56.47,58.09-107.2,101.65-150.76
			S259.33,87.6,315.81,63.72C374.26,38.99,436.37,26.45,500.41,26.45 M500.41,6.45C227.43,6.45,6.14,227.75,6.14,500.73
			S227.43,995,500.41,995s494.27-221.29,494.27-494.27S773.39,6.45,500.41,6.45L500.41,6.45z"/>
	</g>
</g>
<g id="Layer_2">
	<path class="st1" d="M810.35,570.46c7.23,44.97,12.55,110.94-52.07,187.26C696.36,830.84,515.07,899.05,500,904.63
		c-0.2,0.08-0.37,0.14-0.51,0.19c-0.14-0.05-0.3-0.11-0.49-0.18c-15.05-5.49-196.71-72.81-259-145.64c-65-76-60-142-53-187
		s47-109,36-155s-48-61-48-61l87-182c0,0,73,33,117,28s76-25,89-34c11.39-7.88,25.84-19.6,29.25-22.39c0.15-0.12,0.28-0.22,0.38-0.3
		c0.1,0.08,0.23,0.18,0.37,0.3c3.42,2.77,17.94,14.42,29.37,22.24c13.04,8.94,45.14,28.78,89.16,33.56
		c44.03,4.78,116.86-28.57,116.86-28.57l87.9,181.56c0,0-36.93,15.19-47.7,61.24C762.82,461.69,803.13,525.5,810.35,570.46z"/>
	<path class="st1" d="M497.63,145.31C497.87,145.1,498,145,498,145v0.61C497.86,145.49,497.73,145.39,497.63,145.31z"/>
	<path class="st1" d="M500,904.63V905c0,0-0.17-0.06-0.51-0.18C499.63,904.77,499.8,904.71,500,904.63z"/>
	<g>
		<path class="st1" d="M497.25,145c0,0,0.13,0.11,0.38,0.31c-0.1,0.08-0.23,0.18-0.38,0.3V145z"/>
		<path class="st1" d="M499.49,904.82C499.17,904.94,499,905,499,905v-0.36C499.19,904.71,499.35,904.77,499.49,904.82z"/>
	</g>
</g>
</svg>
