<?xml version="1.0" encoding="utf-8"?>
<!-- Generator: Adobe Illustrator 23.0.1, SVG Export Plug-In . SVG Version: 6.00 Build 0)  -->
<svg version="1.1" id="Layer_1" xmlns="http://www.w3.org/2000/svg" xmlns:xlink="http://www.w3.org/1999/xlink" x="0px" y="0px"
	 viewBox="0 0 1000 1000" style="enable-background:new 0 0 1000 1000;" xml:space="preserve">
<style type="text/css">
	.st0{fill:#5937AA;}
	.st1{fill:#FFFFFF;}
</style>
<g>
	<g>
		<path class="st0" d="M500.4,985c-65.4,0-128.8-12.8-188.5-38c-57.7-24.4-109.5-59.3-153.9-103.8c-44.5-44.5-79.4-96.3-103.8-153.9
			c-25.3-59.7-38-123.1-38-188.5s12.8-128.8,38-188.5c24.4-57.7,59.3-109.5,103.8-153.9s96.3-79.4,153.9-103.8
			c59.7-25.3,123.1-38,188.5-38s128.8,12.8,188.5,38c57.7,24.4,109.5,59.3,153.9,103.8s79.4,96.3,103.8,153.9
			c25.3,59.7,38,123.1,38,188.5s-12.8,128.8-38,188.5c-24.4,57.7-59.3,109.5-103.8,153.9S746.6,922.6,688.9,947
			C629.2,972.2,565.8,985,500.4,985z"/>
		<path d="M500.4,26.5c64,0,126.1,12.5,184.6,37.3c56.5,23.9,107.2,58.1,150.8,101.7s77.8,94.3,101.7,150.8
			c24.7,58.5,37.3,120.6,37.3,184.6s-12.5,126.1-37.3,184.6c-23.9,56.5-58.1,107.2-101.7,150.8S741.5,913.8,685,937.7
			C626.5,962.5,564.4,975,500.4,975s-126.1-12.5-184.6-37.3c-56.5-23.9-107.2-58.1-150.8-101.7c-43.6-43.6-77.8-94.3-101.7-150.8
			c-24.7-58.5-37.3-120.6-37.3-184.6s12.5-126.1,37.3-184.6c23.9-56.5,58.1-107.2,101.7-150.8s94.3-77.8,150.8-101.7
			C374.3,39,436.4,26.5,500.4,26.5 M500.4,6.4C227.4,6.4,6.1,227.8,6.1,500.7S227.4,995,500.4,995s494.3-221.3,494.3-494.3
			S773.4,6.4,500.4,6.4L500.4,6.4z"/>
	</g>
</g>
<rect x="318.5" y="672" transform="matrix(0.7071 -0.7071 0.7071 0.7071 -434.4273 443.7997)" class="st1" width="0" height="148.7"/>
<polygon class="st1" points="862.7,308.2 371.1,799.9 265.9,694.7 138.1,566.9 243.2,461.8 371.1,589.6 757.6,203.1 "/>
<rect x="349.6" y="746.2" transform="matrix(0.7071 -0.7071 0.7071 0.7071 -403.7332 518.402)" class="st1" width="148.7" height="0.7"/>
</svg>
