<?xml version="1.0" encoding="utf-8"?>
<!-- Generator: Adobe Illustrator 23.0.1, SVG Export Plug-In . SVG Version: 6.00 Build 0)  -->
<svg version="1.1" id="Layer_1" xmlns="http://www.w3.org/2000/svg" xmlns:xlink="http://www.w3.org/1999/xlink" x="0px" y="0px"
	 viewBox="0 0 1000 1000" style="enable-background:new 0 0 1000 1000;" xml:space="preserve">
<style type="text/css">
	.st0{fill:#5937AA;}
	.st1{fill:none;stroke:#000000;stroke-width:20;stroke-miterlimit:10;}
	.st2{fill:#FFFFFF;}
</style>
<g id="d20">
	<g>
		<polygon class="st0" points="917.54,260.46 917.54,745.08 779.08,678.62 		"/>
		<polygon class="st0" points="917.54,260.46 779.08,678.62 775.14,682.8 772.15,680 495.23,200.92 495.06,199.76 496.62,199.54 		
			"/>
		<polygon class="st0" points="917.54,260.46 496.62,199.54 499.38,14 		"/>
		<polygon class="st0" points="917.54,745.08 496.62,986 494.21,984.62 496.62,980.46 733.3,727.52 		"/>
		<polygon class="st0" points="917.54,745.08 496,986 775.14,682.8 779.08,678.62 		"/>
		<polygon class="st0" points="775.14,682.8 733.3,727.52 234.23,680 772.15,680 		"/>
		<polygon class="st0" points="495.23,200.92 772.15,680 234.23,680 221.77,678.81 		"/>
		<polygon class="st0" points="772,680 496.62,980.46 219.69,678.62 221.77,678.81 221.08,680 234.23,680 		"/>
		<polygon class="st0" points="499.38,14 496.62,199.54 495.06,199.76 78.46,260.46 		"/>
		<polygon class="st0" points="219.69,678.62 496.62,980.46 494.21,984.62 78.46,745.08 		"/>
		<polygon class="st0" points="495.06,199.76 495.23,200.92 221.77,678.81 219.69,678.62 78.46,260.46 		"/>
		<polygon class="st0" points="234.23,680 221.08,680 221.77,678.81 		"/>
		<polygon class="st0" points="78.46,260.46 219.69,678.62 78.46,745.08 		"/>
	</g>
	<g>
		<polyline class="st1" points="917.54,745.08 779.08,678.62 775.14,682.8 733.3,727.52 496.62,980.46 219.69,678.62 		"/>
		<polyline class="st1" points="78.46,260.46 495.06,199.76 496.62,199.54 499.38,14 		"/>
		<polyline class="st1" points="78.46,745.08 219.69,678.62 78.46,260.46 		"/>
		<polygon class="st1" points="772.15,680 495.23,200.92 221.77,678.81 221.08,680 234.23,680 		"/>
		<line class="st1" x1="917.54" y1="260.46" x2="496.62" y2="199.54"/>
		<polygon class="st1" points="78.46,260.46 78.46,745.08 494.21,984.62 496.62,986 917.54,745.08 917.54,260.46 499.38,14 		"/>
		<line class="st1" x1="917.54" y1="260.46" x2="779.08" y2="678.62"/>
	</g>
</g>
<g>
	<path class="st2" d="M417.91,571.39h55.82c5.56,0,9.8,1.14,12.73,3.42c2.92,2.28,4.38,5.38,4.38,9.3c0,3.49-1.16,6.45-3.47,8.88
		c-2.32,2.42-5.83,3.64-10.53,3.64h-78.7c-5.35,0-9.52-1.48-12.51-4.44c-2.99-2.96-4.49-6.43-4.49-10.43
		c0-2.57,0.96-5.97,2.89-10.21c1.92-4.24,4.03-7.57,6.31-10c9.48-9.84,18.03-18.27,25.66-25.29c7.63-7.02,13.08-11.64,16.36-13.85
		c5.84-4.13,10.71-8.29,14.6-12.46c3.88-4.17,6.84-8.45,8.88-12.83c2.03-4.38,3.05-8.68,3.05-12.89c0-4.56-1.09-8.64-3.26-12.24
		c-2.17-3.6-5.13-6.4-8.88-8.39c-3.74-2-7.83-2.99-12.24-2.99c-9.34,0-16.68,4.1-22.03,12.3c-0.71,1.07-1.91,3.99-3.58,8.77
		c-1.68,4.78-3.57,8.45-5.67,11.01c-2.1,2.57-5.19,3.85-9.25,3.85c-3.57,0-6.52-1.18-8.88-3.53s-3.53-5.56-3.53-9.62
		c0-4.92,1.1-10.05,3.31-15.4c2.21-5.35,5.51-10.19,9.89-14.54c4.38-4.35,9.94-7.86,16.68-10.53c6.74-2.67,14.63-4.01,23.69-4.01
		c10.91,0,20.21,1.71,27.91,5.13c4.99,2.28,9.37,5.42,13.15,9.41c3.78,3.99,6.72,8.61,8.82,13.85c2.1,5.24,3.15,10.68,3.15,16.31
		c0,8.84-2.19,16.88-6.58,24.11c-4.38,7.24-8.86,12.9-13.42,17c-4.56,4.1-12.21,10.53-22.94,19.3
		c-10.73,8.77-18.09,15.58-22.08,20.42C421.44,566.36,419.69,568.68,417.91,571.39z"/>
	<path class="st2" d="M618.94,519.74c0,11.69-0.71,21.74-2.14,30.15c-1.43,8.41-4.06,16.04-7.91,22.88
		c-4.85,8.41-11.12,14.9-18.82,19.46c-7.7,4.56-16.25,6.84-25.66,6.84c-10.84,0-20.55-3.06-29.14-9.2
		c-8.59-6.13-15.06-14.61-19.41-25.45c-2.21-5.92-3.83-12.46-4.87-19.62c-1.03-7.16-1.55-14.92-1.55-23.26
		c0-10.76,0.57-20.46,1.71-29.09c1.14-8.63,2.92-16.04,5.35-22.24c4.21-10.27,10.32-18.09,18.34-23.47
		c8.02-5.38,17.59-8.07,28.71-8.07c7.34,0,14.01,1.19,20,3.58c5.99,2.39,11.24,5.88,15.77,10.48c4.53,4.6,8.36,10.28,11.5,17.06
		C616.23,481.56,618.94,498.21,618.94,519.74z M589.64,517.6c0-13.05-0.79-23.72-2.35-32.03c-1.57-8.3-4.21-14.58-7.91-18.82
		c-3.71-4.24-8.84-6.36-15.4-6.36c-9.41,0-15.95,4.74-19.62,14.22c-3.67,9.48-5.51,24.1-5.51,43.84c0,13.4,0.78,24.38,2.35,32.94
		c1.57,8.55,4.21,15.02,7.91,19.41c3.71,4.38,8.73,6.58,15.08,6.58c6.56,0,11.69-2.28,15.4-6.84c3.71-4.56,6.31-11.08,7.81-19.57
		C588.89,542.48,589.64,531.36,589.64,517.6z"/>
</g>
</svg>
