<?xml version="1.0" encoding="utf-8"?>
<!-- Generator: Adobe Illustrator 23.0.1, SVG Export Plug-In . SVG Version: 6.00 Build 0)  -->
<svg version="1.1" xmlns="http://www.w3.org/2000/svg" xmlns:xlink="http://www.w3.org/1999/xlink" x="0px" y="0px"
	 viewBox="0 0 1000 1000" style="enable-background:new 0 0 1000 1000;" xml:space="preserve">
<style type="text/css">
	.st0{fill:#5937AA;}
	.st1{fill:#FFFFFF;}
</style>
<g id="Layer_1">
	<g>
		<path class="st0" d="M500.41,985c-65.38,0-128.8-12.8-188.5-38.05c-57.67-24.39-109.46-59.31-153.93-103.79
			c-44.48-44.48-79.4-96.27-103.79-153.94c-25.25-59.7-38.05-123.12-38.05-188.5c0-65.38,12.8-128.8,38.05-188.5
			c24.39-57.67,59.31-109.46,103.79-153.93s96.27-79.4,153.93-103.79c59.7-25.25,123.12-38.05,188.5-38.05s128.8,12.8,188.5,38.05
			c57.67,24.39,109.46,59.31,153.93,103.79s79.4,96.27,103.79,153.93c25.25,59.7,38.05,123.12,38.05,188.5
			c0,65.38-12.8,128.8-38.05,188.5c-24.39,57.67-59.31,109.46-103.79,153.94c-44.48,44.48-96.27,79.4-153.93,103.79
			C629.21,972.2,565.79,985,500.41,985z"/>
		<path d="M500.41,26.45c64.04,0,126.14,12.54,184.6,37.26c56.47,23.89,107.2,58.09,150.76,101.65
			c43.56,43.56,77.76,94.29,101.65,150.76c24.73,58.46,37.26,120.57,37.26,184.6s-12.54,126.14-37.26,184.6
			c-23.89,56.47-58.09,107.2-101.65,150.76c-43.56,43.56-94.29,77.76-150.76,101.65C626.55,962.46,564.44,975,500.41,975
			s-126.14-12.54-184.6-37.26c-56.47-23.89-107.2-58.09-150.76-101.65C121.48,792.53,87.29,741.8,63.4,685.33
			c-24.73-58.46-37.26-120.57-37.26-184.6s12.54-126.14,37.26-184.6c23.89-56.47,58.09-107.2,101.65-150.76
			S259.33,87.6,315.81,63.72C374.26,38.99,436.37,26.45,500.41,26.45 M500.41,6.45C227.43,6.45,6.14,227.75,6.14,500.73
			S227.43,995,500.41,995s494.27-221.29,494.27-494.27S773.39,6.45,500.41,6.45L500.41,6.45z"/>
	</g>
</g>
<g id="Layer_2">
	<g>
		<path class="st1" d="M210.07,783.95c3.13-13.03,6.41-26.02,9.35-39.09c7.26-32.17,14.36-64.38,21.24-95.3
			c39.84,39.78,80.09,79.96,120.19,120.01c-8.74,2.16-19.05,4.74-29.38,7.24c-33.2,8.04-66.4,16.04-99.6,24.09
			c-11.9,2.89-15.76,1.39-21.81-8.73C210.07,789.42,210.07,786.68,210.07,783.95z"/>
		<path class="st1" d="M583.65,305.65c40.34,40.34,80.82,80.82,121.02,121.02C602.2,529.17,499.37,632.04,397.06,734.4
			c-40.34-40.27-80.93-80.78-121.25-121.02C378.14,511.09,480.98,408.28,583.65,305.65z"/>
		<path class="st1" d="M737.87,393.74c-40.45-40.45-80.91-80.91-122.71-122.7c2.61-2.05,5.75-4.08,8.37-6.65
			c15.49-15.18,30.16-31.27,46.42-45.57c23.17-20.37,52.82-19.08,74.95,2.3c17.98,17.38,35.65,35.11,53.06,53.06
			c16.86,17.38,17.89,40.93,1.38,58.44C779.52,353.64,758.41,373.43,737.87,393.74z"/>
	</g>
</g>
</svg>
