<?xml version="1.0" encoding="utf-8"?>
<!-- Generator: Adobe Illustrator 23.0.1, SVG Export Plug-In . SVG Version: 6.00 Build 0)  -->
<svg version="1.1" id="Layer_1" xmlns="http://www.w3.org/2000/svg" xmlns:xlink="http://www.w3.org/1999/xlink" x="0px" y="0px"
	 viewBox="0 0 447 650.1" style="enable-background:new 0 0 447 650.1;" xml:space="preserve">
<title>icon_inventory</title>
<g id="XMLID_1_">
	<g>
		<path d="M414.8,311.9c82.4,135.5-1.6,313.4-158.5,335.8c-5.4,0.8-10.9,1.6-16.3,2.4h-33c-17.8-3.7-36-5.8-53.2-11.3
			C65.6,610.4,3.3,528.1,0.1,437.3c-3.3-96.2,51.6-182,139.2-217.5c17.4-7.1,23.2-15.6,23.2-34.3c0-20.9,0-41.8,0-62.7
			c-17.3-5.8-20.4-10.1-20.3-28.1c0-2.1,0.1-4.3,0-6.3c-1.2-13.8,3.2-24.2,18.3-27.8c-2-12.6-4-24.9-5.9-37.1
			c-1.1-7,0.6-13.6,6.2-17.7c4-2.9,9.4-5.4,14.3-5.5c32.1-0.5,64.3-0.3,96.4-0.2c14,0.1,22.7,10.3,20.7,24.3
			c-1.7,11.9-3.8,23.8-5.7,35.4c4.1,2.4,8.4,4,11.6,6.8c9.7,8.5,10,41,0.2,49.5c-3.6,3.2-8.7,4.8-13.7,7.4c0,22.8-0.7,46.8,0.3,70.6
			c0.5,12.8,9.5,20.5,21.2,25.2C352.6,238.2,388.8,269,414.8,311.9z"/>
	</g>
	<g>
	</g>
</g>
</svg>
