<svg id="Layer_1" data-name="Layer 1" xmlns="http://www.w3.org/2000/svg" viewBox="0 0 1436.84 1436.84"><title>ic_nav_boons</title><path d="M1838.42,531.58H661.58c-71.5,0-130,58.5-130,130V1838.42c0,71.5,58.5,130,130,130H1838.42c71.5,0,130-58.5,130-130V661.58C1968.42,590.08,1909.92,531.58,1838.42,531.58Zm-93.49,742.65c-59.67,95.29-141.54,179.1-223.92,257-68.55,64.8-151.87,114.18-230.07,168.33-11.62,8-35.82,12.23-46.18,5.62-161-102.64-318.62-210.86-428.45-371.06-36-52.45-65.4-114.71-78.38-176.57-40-190.69,99.4-355.52,292.17-359.69,71.22-2.58,90.84-.7,191.2,50.46,33.07,16.86,55.83,13.13,86.77-2,107.69-52.65,220.21-69.27,329.87-10.61C1795.47,920,1847,1111.2,1744.93,1274.23Z" transform="translate(-531.58 -531.58)"/><rect x="675.87" y="442.77" width="85.1" height="551.29"/><rect x="1207.45" y="974.35" width="85.1" height="551.29" transform="translate(1968.42 -531.58) rotate(90)"/></svg>