<svg id="Layer_2" data-name="Layer 2" xmlns="http://www.w3.org/2000/svg" viewBox="0 0 447.02 650.07"><defs><style>.cls-1{fill:#fff;}</style></defs><title>icon_inventory</title><path class="cls-1" d="M460.25,198.43h97.62c-2.2,13.38-4.36,26.57-6.56,40H466.88C464.67,225.09,462.5,212,460.25,198.43Z" transform="translate(-285.58 -177.66)"/><path class="cls-1" d="M569.64,259.46v19.33H448.32V259.46Z" transform="translate(-285.58 -177.66)"/><path class="cls-1" d="M709.88,610.45c1.35.88,1.93,4,1.78,6C707,677.81,681,728.25,632,765.53c-121.69,92.57-296.14,23.79-323-127-1.31-7.36-1.85-14.86-2.88-23.41,31.85,14.43,61.66,11.3,90.71-4.4,1.28,7.11,2.1,13.82,3.72,20.34,13.3,53.45,64,89.84,117.9,84.7,56.29-5.37,99.06-49.57,102.47-105.68.12-2,1.64-4.89,3.36-5.84C653.23,588.28,682.42,592.63,709.88,610.45Z" transform="translate(-285.58 -177.66)"/><path class="cls-1" d="M513.56,513c49,2,88.71,44.86,86.81,93.65-2,50.81-44.32,91.06-93.56,89-50.82-2.17-90.9-44-89-92.87C419.82,550,461.59,510.83,513.56,513Z" transform="translate(-285.58 -177.66)"/><path class="cls-1" d="M710.67,580c.27,2,.24,4.12.41,7.28-30.42-15.82-60.79-17.76-91.81-3.55-1.27-4.54-2.24-8.39-3.42-12.17-15.27-49.33-61.07-81.3-112.93-78.86-50,2.35-92.64,39.15-103.33,88.91a11,11,0,0,1-4.71,6.64,182.75,182.75,0,0,1-23.33,11.27c-20.83,7.84-41.11,5-60.86-4.33-3.33-1.57-4.57-3.34-4.12-7.26q14-122.61,127-171.93c23.45-10.19,34.87-26.44,34.88-52q0-31.1,0-62.2a13.91,13.91,0,0,1,.45-1.89H549.7V319c0,15-.07,30,0,45.06.11,25.83,11.08,42.17,34.92,52q59.58,24.48,94.82,78.37C696.45,520.5,706.61,549.16,710.67,580Z" transform="translate(-285.58 -177.66)"/><path class="cls-1" d="M700.38,489.54c82.44,135.47-1.56,313.4-158.51,335.82-5.43.77-10.86,1.58-16.28,2.37h-33c-17.76-3.68-36-5.81-53.18-11.32C351.22,788.1,288.86,705.79,285.72,615c-3.33-96.2,51.61-182,139.19-217.51,17.39-7.05,23.22-15.62,23.23-34.27,0-20.92,0-41.85,0-62.66-17.28-5.76-20.37-10.09-20.32-28.06,0-2.12.14-4.25,0-6.35-1.15-13.85,3.21-24.17,18.34-27.85-2-12.6-4-24.87-5.95-37.14-1.09-7,.58-13.56,6.21-17.67,4-2.93,9.44-5.45,14.27-5.52,32.15-.48,64.3-.33,96.45-.21,14,.05,22.67,10.27,20.7,24.29-1.68,11.9-3.8,23.75-5.69,35.4,4.14,2.36,8.4,4,11.61,6.79,9.71,8.51,10,41,.22,49.52-3.63,3.18-8.66,4.78-13.67,7.42,0,22.85-.7,46.75.28,70.58.53,12.77,9.47,20.5,21.18,25.24Q661.37,425.24,700.38,489.54Zm11.28,126.89c.15-2-.43-5.1-1.78-6-27.46-17.82-56.65-22.17-85.61-6.17-1.72,1-3.24,3.79-3.36,5.84-3.41,56.11-46.18,100.31-102.47,105.68-53.85,5.14-104.6-31.25-117.9-84.7-1.62-6.52-2.44-13.23-3.72-20.34-29.05,15.7-58.86,18.83-90.71,4.4,1,8.55,1.57,16.05,2.88,23.41,26.91,150.75,201.36,219.53,323,127C681,728.25,707,677.81,711.66,616.43Zm-.58-29.13c-.17-3.16-.14-5.24-.41-7.28-4.06-30.86-14.22-59.52-31.24-85.65q-35.17-54-94.82-78.37c-23.84-9.8-34.81-26.14-34.92-52-.06-15,0-30,0-45.06V299.88H469a13.91,13.91,0,0,0-.45,1.89q0,31.1,0,62.2c0,25.61-11.43,41.86-34.88,52Q320.47,465.15,306.57,588c-.45,3.92.79,5.69,4.12,7.26,19.75,9.36,40,12.17,60.86,4.33a182.75,182.75,0,0,0,23.33-11.27,11,11,0,0,0,4.71-6.64c10.69-49.76,53.33-86.56,103.33-88.91,51.86-2.44,97.66,29.53,112.93,78.86,1.18,3.78,2.15,7.63,3.42,12.17C650.29,569.54,680.66,571.48,711.08,587.3ZM600.37,606.63c1.9-48.79-37.81-91.62-86.81-93.65-52-2.15-93.74,37-95.77,89.74-1.88,48.88,38.2,90.7,89,92.87C556.05,697.69,598.38,657.44,600.37,606.63ZM569.64,278.79V259.46H448.32v19.33Zm-11.77-80.36H460.25c2.25,13.57,4.42,26.66,6.63,40h84.43C553.51,225,555.67,211.81,557.87,198.43Z" transform="translate(-285.58 -177.66)"/></svg>