<?xml version="1.0" encoding="utf-8"?>
<!-- Generator: Adobe Illustrator 23.0.1, SVG Export Plug-In . SVG Version: 6.00 Build 0)  -->
<svg version="1.1" id="Layer_1" xmlns="http://www.w3.org/2000/svg" xmlns:xlink="http://www.w3.org/1999/xlink" x="0px" y="0px"
	 viewBox="0 0 1436.8 1436.8" style="enable-background:new 0 0 1436.8 1436.8;" xml:space="preserve">
<title>ic_nav_boons</title>
<g id="layer1">
	<path id="path2417" d="M662.4,1298c-30.6-34.3-107-101.1-169.8-148.5c-186-140.5-211.3-160.8-286.9-230.4
		C66.6,790.9,7.4,662.1,7.6,487.4c0.1-85.3,5.9-118.1,29.8-168.4c40.5-85.3,100.2-148.6,176.5-187.4c54-27.4,80.7-39.6,170.9-40.1
		c94.4-0.5,114.3,10.5,169.8,41c67.6,37.1,137.1,116.5,151.5,172.8l8.9,34.8l21.9-47.9c123.8-270.9,518.9-266.9,656.4,6.7
		c43.6,86.8,48.4,272.1,9.7,376.5c-50.5,136.2-145.2,240-364.3,399.1C895,1179,732.4,1336.8,721.1,1359
		C708,1384.8,720.5,1363,662.4,1298z"/>
	<g id="g2221" transform="translate(129.28571,-64.285714)">
	</g>
</g>
</svg>
