<svg id="Layer_1" data-name="Layer 1" xmlns="http://www.w3.org/2000/svg" viewBox="0 0 1786.14 2000.45"><defs><style>.cls-1{fill:#7a7a7a;}</style></defs><title>ic_nav_sheet</title><path class="cls-1" d="M1869.67,253.14h23.57c3.93,1.85,7.79,3.9,11.81,5.52,43.73,17.68,83.14,39.67,94.85,91,1.15,5,5.58,9.72,9.41,13.67,23,23.71,35.22,52.88,42.66,84.34,6.35,26.84,14.46,54.16-10.24,74.43,8.6,13,20.85,23.31,22.24,34.94,7.71,64.11,10.3,128.55,2.56,193-9.68,80.69-18.68,161.46-29,242.08-4,31.53-8.21,63.45-17.12,93.79-5,17.08-15,31.57-4.17,49.57,2,3.33,1.37,8.84.66,13.13-11.33,69.1-20.7,138.64-35.42,207-6,27.77-13.27,53.24-13.61,83.13-.74,64.68-13.81,129.12-19.1,193.88-3,36.57-.54,73.59-.54,110.79,22-2.17,44.81-5.51,67.67-6.16,9.69-.28,21.36,2.63,29,8.3,26.36,19.55,47.22,46.78,53.72,77.2,4,18.56,12.67,31.35,20.66,46.26,15.12,28.2,8.47,62.62,25.64,90.62,3.28,5.35,1.36,14.36.67,21.57-1.33,13.94-4.73,27.77-5,41.7-.68,30.3-12.5,55.11-32.87,76.93-4.53,4.85-5.93,12.57-8.93,18.9-2.85,6-4.38,14.21-9.19,17.43-9,6.07-19.68,11.71-30.29,13.28-101.42,15-202.81,30.46-304.54,43.2-97.88,12.26-196,22.49-294.27,31.73-93.78,8.82-187.77,15.45-281.7,22.56-38,2.87-76,4.47-114,6.65H970.48c-10-1.07-19.87-2.67-29.85-3.14-41.31-1.9-81-10.5-118.82-27.46-56.42-25.34-93.65-68-112.74-126.58-2-6.27-2.54-13.08-3.38-19.69-1.86-14.7-2.76-29.56-5.34-44.12-5-27.95-13.05-55.51-15.88-83.62-8.68-86.13,4-171.22,15.44-256.29,7.47-55.43,11.55-111.46,43.37-160.65,5-7.67,5.06-23.47.42-31.44-12.56-21.55-9.94-40.17,2.6-59.69,10.44-16.24,14-33.42,9.08-52.93-2.64-10.46-2.59-22.32-.79-33Q774.45,1236.42,796,1118.2c1.33-7.26,7.25-15.15,13.31-19.75,10.66-8.08,12.88-16.6,6.07-27.32-8.24-13-8.21-26.12-3.7-40.26,4.42-13.85,7.67-28.08,11.72-42.06,6.17-21.35,12.71-42.51,46.42-41.46-10.74-6.59-16.12-10.65-22.1-13.41-14.89-6.86-20.15-16.71-16.32-33.66,4.63-20.54,6.16-41.79,9.17-63.73-4.3,0-7-.3-9.6,0-88.31,11.53-176.45,24.67-265,34.1-52.17,5.56-100.24-7.87-137.58-48.39-6.23-6.77-10.74-13.07-3.79-21.88,8.37-10.61,4-16.68-7.7-18.22-16.83-2.22-24.15-12.92-29.87-27.6-22.21-57-29.18-116-25.38-176.61,2-31.83,8.48-62,29.16-87.78,4-4.94,7.67-12.58,6.92-18.37-4.26-32.77,14.47-56.76,30.24-81.5,31-48.61,72.6-85.46,130.52-95.58,37.77-6.6,77-7.53,115.51-6.83,372.21,6.68,743.9-4.91,1115.29-28.95C1816.11,257.24,1842.88,255.1,1869.67,253.14Z" transform="translate(-360.69 -253.14)"/></svg>