<svg id="Layer_1" data-name="Layer 1" xmlns="http://www.w3.org/2000/svg" viewBox="0 0 1927.29 1927.29"><title>ic_nav_banes</title><path d="M2099.31,316.49H432c-71.5,0-130,58.5-130,130V2113.78c0,71.5,58.5,130,130,130H2099.31c71.5,0,130-58.5,130-130V446.49C2229.31,375,2170.81,316.49,2099.31,316.49ZM1744.45,1794.88c-19,1.6-37.92,4.66-56.88,7-37.93,4.71-64.5-19.47-57.72-49.75,17.39-77.73-43.6-99.49-87.18-124.06-48.35-27.26-97.49,1.71-138.11,34.39-41,33-70.13,27.71-100.84-24.61,48.5-27.11,111.39-54.31,83.83-114.48-19.75-43.15-75.66-95.19-116.53-96.14-41.78-1-104,47-122.91,88.94-27.67,61.28,32.6,96.79,84.68,121-31.22,55.44-59.86,60.89-99.49,21.91-61.89-60.87-195.18-38.63-227.79,39.14-4.75,11.32.23,27,1.46,40.53,3.72,40.65-21.8,66.9-62,62.92-6.88-.68-13.52-3.55-20.39-4.57-77.92-11.52-97.6-32.55-86.18-111.44,2.84-19.57,38.51-52.22,53.16-49.29,80.42,16.15,102.75-53.39,126.3-95.29,14.76-26.26-13-85.42-35.59-121-20.28-31.91-34.28-56.8-10.09-88.24,15.84-20.58,33.16-30.24,50.4,4,11,21.93,29.15,44.32,49.95,56.47,40.25,23.52,73.06,11.72,101.23-28.86,50.53-72.81,52.61-71.25-19.51-125.1-71.11-53.1-142.44-105.92-212.81-160-13.35-10.25-28.73-24.1-32.82-39.12q-34.38-126-61.8-253.71C745.24,778,769.39,755,778.14,756.7c83.71,16.42,167.41,34,249.37,57.43,22.09,6.31,40.65,31.45,56.68,51.3C1144,939.52,1202.13,1015,1266.4,1097c57.32-70.74,113.75-134,162.5-202.61,37.15-52.31,77.72-88.79,144.35-98.18,69.85-9.84,138.35-29.22,215.91-46.3-2.43,27.86-2.3,46.34-5.93,64.05-9.09,44.35-23.18,87.91-29.26,132.6-10.39,76.37-48.53,129.59-113.28,171.31-64.19,41.35-121.93,92.6-183.58,138-36.4,26.83-37.55,53.3-9.34,87.35,53,64,79.59,78.81,122.28,48.44,24.55-17.47,37.83-50.78,56.8-77.83,53.52,17.18,65.55,53.54,29.18,96.68-61.47,72.93-51.43,161,27.08,216.57,12.11,8.57,32.66,8.77,48.83,7.38,44.24-3.82,65,16.32,68.08,58.87C1805.34,1765.57,1791.42,1790.93,1744.45,1794.88Z" transform="translate(-302.02 -316.49)"/></svg>